{
    "asset" : {
        "generator" : "Khronos glTF Blender I/O v1.1.46",
        "version" : "2.0"
    },
    "scene" : 0,
    "scenes" : [
        {
            "name" : "Scene",
            "nodes" : [
                9,
                10
            ]
        }
    ],
    "nodes" : [
        {
            "mesh" : 0,
            "name" : "Box005",
            "translation" : [
                6,
                -4,
                2.2117691040039062
            ]
        },
        {
            "mesh" : 1,
            "name" : "Circle001",
            "rotation" : [
                0.7071068286895752,
                0,
                0,
                0.7071067094802856
            ],
            "translation" : [
                -3.814697265625e-06,
                -1,
                2.2117691040039062
            ]
        },
        {
            "mesh" : 2,
            "name" : "Pyramid001",
            "translation" : [
                -6.000007629394531,
                6,
                2.2117691040039062
            ]
        },
        {
            "mesh" : 3,
            "name" : "Pyramid002",
            "rotation" : [
                0,
                -0.7071068286895752,
                0,
                0.7071067094802856
            ],
            "translation" : [
                5.999996185302734,
                6,
                2.2117691040039062
            ]
        },
        {
            "mesh" : 4,
            "name" : "Rectangle002",
            "translation" : [
                3.814697265625e-06,
                -4,
                7.62939453125e-06
            ]
        },
        {
            "mesh" : 5,
            "name" : "Sphere002",
            "translation" : [
                5.999996185302734,
                9.499998092651367,
                2.2117767333984375
            ]
        },
        {
            "mesh" : 6,
            "name" : "Sphere003",
            "translation" : [
                -6.0000152587890625,
                6.916023254394531,
                2.2117767333984375
            ]
        },
        {
            "mesh" : 7,
            "name" : "Sphere004",
            "translation" : [
                -6.0000152587890625,
                3.4999961853027344,
                2.2117767333984375
            ]
        },
        {
            "mesh" : 8,
            "name" : "Sphere005",
            "translation" : [
                5.999992370605469,
                4.499996185302734,
                2.2117767333984375
            ]
        },
        {
            "children" : [
                0,
                1,
                2,
                3,
                4,
                5,
                6,
                7,
                8
            ],
            "name" : "Group001",
            "scale" : [
                0.009999999776482582,
                0.009999999776482582,
                0.009999999776482582
            ],
            "translation" : [
                0,
                0.09666787832975388,
                0
            ]
        },
        {
            "mesh" : 9,
            "name" : "typeMesh1",
            "rotation" : [
                0.7071068286895752,
                0,
                0,
                0.7071067094802856
            ],
            "scale" : [
                0.028556589037179947,
                0.0027479897253215313,
                0.028556589037179947
            ],
            "translation" : [
                -0.10390010476112366,
                0.028229394927620888,
                0.09786839038133621
            ]
        }
    ],
    "materials" : [
        {
            "doubleSided" : true,
            "emissiveFactor" : [
                0,
                0,
                0
            ],
            "name" : "md_enduit_01",
            "pbrMetallicRoughness" : {
                "baseColorFactor" : [
                    0.886274516582489,
                    0.886274516582489,
                    0.886274516582489,
                    1
                ],
                "metallicFactor" : 0,
                "roughnessFactor" : 0.8999999761581421
            }
        },
        {
            "doubleSided" : true,
            "emissiveFactor" : [
                0,
                0,
                0
            ],
            "name" : "typeBlinn",
            "pbrMetallicRoughness" : {
                "baseColorFactor" : [
                    1,
                    1,
                    1,
                    1
                ],
                "metallicFactor" : 0.5,
                "roughnessFactor" : 0.7487671971321106
            }
        }
    ],
    "meshes" : [
        {
            "name" : "Mesh.004",
            "primitives" : [
                {
                    "attributes" : {
                        "POSITION" : 0,
                        "NORMAL" : 1,
                        "TEXCOORD_0" : 2
                    },
                    "indices" : 3,
                    "material" : 0
                }
            ]
        },
        {
            "name" : "Mesh.002",
            "primitives" : [
                {
                    "attributes" : {
                        "POSITION" : 4,
                        "NORMAL" : 5
                    },
                    "indices" : 6,
                    "material" : 0
                }
            ]
        },
        {
            "name" : "Mesh",
            "primitives" : [
                {
                    "attributes" : {
                        "POSITION" : 7,
                        "NORMAL" : 8,
                        "TEXCOORD_0" : 9
                    },
                    "indices" : 10,
                    "material" : 0
                }
            ]
        },
        {
            "name" : "Mesh.001",
            "primitives" : [
                {
                    "attributes" : {
                        "POSITION" : 11,
                        "NORMAL" : 12,
                        "TEXCOORD_0" : 13
                    },
                    "indices" : 10,
                    "material" : 0
                }
            ]
        },
        {
            "name" : "Mesh.003",
            "primitives" : [
                {
                    "attributes" : {
                        "POSITION" : 14,
                        "NORMAL" : 15
                    },
                    "indices" : 16,
                    "material" : 0
                }
            ]
        },
        {
            "name" : "Mesh.007",
            "primitives" : [
                {
                    "attributes" : {
                        "POSITION" : 17,
                        "NORMAL" : 18,
                        "TEXCOORD_0" : 19
                    },
                    "indices" : 20,
                    "material" : 0
                }
            ]
        },
        {
            "name" : "Mesh.008",
            "primitives" : [
                {
                    "attributes" : {
                        "POSITION" : 21,
                        "NORMAL" : 22,
                        "TEXCOORD_0" : 23
                    },
                    "indices" : 20,
                    "material" : 0
                }
            ]
        },
        {
            "name" : "Mesh.005",
            "primitives" : [
                {
                    "attributes" : {
                        "POSITION" : 24,
                        "NORMAL" : 25,
                        "TEXCOORD_0" : 26
                    },
                    "indices" : 20,
                    "material" : 0
                }
            ]
        },
        {
            "name" : "Mesh.006",
            "primitives" : [
                {
                    "attributes" : {
                        "POSITION" : 27,
                        "NORMAL" : 28,
                        "TEXCOORD_0" : 29
                    },
                    "indices" : 20,
                    "material" : 0
                }
            ]
        },
        {
            "name" : "Mesh.009",
            "primitives" : [
                {
                    "attributes" : {
                        "POSITION" : 30,
                        "NORMAL" : 31,
                        "TEXCOORD_0" : 32
                    },
                    "indices" : 33,
                    "material" : 1
                }
            ]
        }
    ],
    "accessors" : [
        {
            "bufferView" : 0,
            "componentType" : 5126,
            "count" : 1288,
            "max" : [
                2,
                10,
                6.788238525390625
            ],
            "min" : [
                -14.000011444091797,
                -0.4999997615814209,
                -2.0000038146972656
            ],
            "type" : "VEC3"
        },
        {
            "bufferView" : 1,
            "componentType" : 5126,
            "count" : 1288,
            "type" : "VEC3"
        },
        {
            "bufferView" : 2,
            "componentType" : 5126,
            "count" : 1288,
            "type" : "VEC2"
        },
        {
            "bufferView" : 3,
            "componentType" : 5123,
            "count" : 2514,
            "type" : "SCALAR"
        },
        {
            "bufferView" : 4,
            "componentType" : 5126,
            "count" : 240,
            "max" : [
                3.999998092651367,
                7.288243293762207,
                3.000000476837158
            ],
            "min" : [
                -3.999998092651367,
                -0.5000004172325134,
                -2.5
            ],
            "type" : "VEC3"
        },
        {
            "bufferView" : 5,
            "componentType" : 5126,
            "count" : 240,
            "type" : "VEC3"
        },
        {
            "bufferView" : 6,
            "componentType" : 5123,
            "count" : 636,
            "type" : "SCALAR"
        },
        {
            "bufferView" : 7,
            "componentType" : 5126,
            "count" : 35,
            "max" : [
                2,
                3,
                2
            ],
            "min" : [
                -2,
                0,
                -2
            ],
            "type" : "VEC3"
        },
        {
            "bufferView" : 8,
            "componentType" : 5126,
            "count" : 35,
            "type" : "VEC3"
        },
        {
            "bufferView" : 9,
            "componentType" : 5126,
            "count" : 35,
            "type" : "VEC2"
        },
        {
            "bufferView" : 10,
            "componentType" : 5123,
            "count" : 72,
            "type" : "SCALAR"
        },
        {
            "bufferView" : 11,
            "componentType" : 5126,
            "count" : 35,
            "max" : [
                2,
                3,
                2
            ],
            "min" : [
                -2,
                0,
                -2
            ],
            "type" : "VEC3"
        },
        {
            "bufferView" : 12,
            "componentType" : 5126,
            "count" : 35,
            "type" : "VEC3"
        },
        {
            "bufferView" : 13,
            "componentType" : 5126,
            "count" : 35,
            "type" : "VEC2"
        },
        {
            "bufferView" : 14,
            "componentType" : 5126,
            "count" : 128,
            "max" : [
                15,
                1,
                10
            ],
            "min" : [
                -15,
                -5,
                -10
            ],
            "type" : "VEC3"
        },
        {
            "bufferView" : 15,
            "componentType" : 5126,
            "count" : 128,
            "type" : "VEC3"
        },
        {
            "bufferView" : 16,
            "componentType" : 5123,
            "count" : 252,
            "type" : "SCALAR"
        },
        {
            "bufferView" : 17,
            "componentType" : 5126,
            "count" : 559,
            "max" : [
                0.5,
                0.5,
                0.5
            ],
            "min" : [
                -0.5,
                -0.5,
                -0.5
            ],
            "type" : "VEC3"
        },
        {
            "bufferView" : 18,
            "componentType" : 5126,
            "count" : 559,
            "type" : "VEC3"
        },
        {
            "bufferView" : 19,
            "componentType" : 5126,
            "count" : 559,
            "type" : "VEC2"
        },
        {
            "bufferView" : 20,
            "componentType" : 5123,
            "count" : 2880,
            "type" : "SCALAR"
        },
        {
            "bufferView" : 21,
            "componentType" : 5126,
            "count" : 559,
            "max" : [
                0.5,
                0.5,
                0.5
            ],
            "min" : [
                -0.5,
                -0.5,
                -0.5
            ],
            "type" : "VEC3"
        },
        {
            "bufferView" : 22,
            "componentType" : 5126,
            "count" : 559,
            "type" : "VEC3"
        },
        {
            "bufferView" : 23,
            "componentType" : 5126,
            "count" : 559,
            "type" : "VEC2"
        },
        {
            "bufferView" : 24,
            "componentType" : 5126,
            "count" : 559,
            "max" : [
                0.5,
                0.5,
                0.5
            ],
            "min" : [
                -0.5,
                -0.5,
                -0.5
            ],
            "type" : "VEC3"
        },
        {
            "bufferView" : 25,
            "componentType" : 5126,
            "count" : 559,
            "type" : "VEC3"
        },
        {
            "bufferView" : 26,
            "componentType" : 5126,
            "count" : 559,
            "type" : "VEC2"
        },
        {
            "bufferView" : 27,
            "componentType" : 5126,
            "count" : 559,
            "max" : [
                0.5,
                0.5,
                0.5
            ],
            "min" : [
                -0.5,
                -0.5,
                -0.5
            ],
            "type" : "VEC3"
        },
        {
            "bufferView" : 28,
            "componentType" : 5126,
            "count" : 559,
            "type" : "VEC3"
        },
        {
            "bufferView" : 29,
            "componentType" : 5126,
            "count" : 559,
            "type" : "VEC2"
        },
        {
            "bufferView" : 30,
            "componentType" : 5126,
            "count" : 5974,
            "max" : [
                7.465372085571289,
                2.5,
                0.014925620518624783
            ],
            "min" : [
                0.07707437872886658,
                0,
                -0.6371818780899048
            ],
            "type" : "VEC3"
        },
        {
            "bufferView" : 31,
            "componentType" : 5126,
            "count" : 5974,
            "type" : "VEC3"
        },
        {
            "bufferView" : 32,
            "componentType" : 5126,
            "count" : 5974,
            "type" : "VEC2"
        },
        {
            "bufferView" : 33,
            "componentType" : 5123,
            "count" : 21816,
            "type" : "SCALAR"
        }
    ],
    "bufferViews" : [
        {
            "buffer" : 0,
            "byteLength" : 15456,
            "byteOffset" : 0
        },
        {
            "buffer" : 0,
            "byteLength" : 15456,
            "byteOffset" : 15456
        },
        {
            "buffer" : 0,
            "byteLength" : 10304,
            "byteOffset" : 30912
        },
        {
            "buffer" : 0,
            "byteLength" : 5028,
            "byteOffset" : 41216
        },
        {
            "buffer" : 0,
            "byteLength" : 2880,
            "byteOffset" : 46244
        },
        {
            "buffer" : 0,
            "byteLength" : 2880,
            "byteOffset" : 49124
        },
        {
            "buffer" : 0,
            "byteLength" : 1272,
            "byteOffset" : 52004
        },
        {
            "buffer" : 0,
            "byteLength" : 420,
            "byteOffset" : 53276
        },
        {
            "buffer" : 0,
            "byteLength" : 420,
            "byteOffset" : 53696
        },
        {
            "buffer" : 0,
            "byteLength" : 280,
            "byteOffset" : 54116
        },
        {
            "buffer" : 0,
            "byteLength" : 144,
            "byteOffset" : 54396
        },
        {
            "buffer" : 0,
            "byteLength" : 420,
            "byteOffset" : 54540
        },
        {
            "buffer" : 0,
            "byteLength" : 420,
            "byteOffset" : 54960
        },
        {
            "buffer" : 0,
            "byteLength" : 280,
            "byteOffset" : 55380
        },
        {
            "buffer" : 0,
            "byteLength" : 1536,
            "byteOffset" : 55660
        },
        {
            "buffer" : 0,
            "byteLength" : 1536,
            "byteOffset" : 57196
        },
        {
            "buffer" : 0,
            "byteLength" : 504,
            "byteOffset" : 58732
        },
        {
            "buffer" : 0,
            "byteLength" : 6708,
            "byteOffset" : 59236
        },
        {
            "buffer" : 0,
            "byteLength" : 6708,
            "byteOffset" : 65944
        },
        {
            "buffer" : 0,
            "byteLength" : 4472,
            "byteOffset" : 72652
        },
        {
            "buffer" : 0,
            "byteLength" : 5760,
            "byteOffset" : 77124
        },
        {
            "buffer" : 0,
            "byteLength" : 6708,
            "byteOffset" : 82884
        },
        {
            "buffer" : 0,
            "byteLength" : 6708,
            "byteOffset" : 89592
        },
        {
            "buffer" : 0,
            "byteLength" : 4472,
            "byteOffset" : 96300
        },
        {
            "buffer" : 0,
            "byteLength" : 6708,
            "byteOffset" : 100772
        },
        {
            "buffer" : 0,
            "byteLength" : 6708,
            "byteOffset" : 107480
        },
        {
            "buffer" : 0,
            "byteLength" : 4472,
            "byteOffset" : 114188
        },
        {
            "buffer" : 0,
            "byteLength" : 6708,
            "byteOffset" : 118660
        },
        {
            "buffer" : 0,
            "byteLength" : 6708,
            "byteOffset" : 125368
        },
        {
            "buffer" : 0,
            "byteLength" : 4472,
            "byteOffset" : 132076
        },
        {
            "buffer" : 0,
            "byteLength" : 71688,
            "byteOffset" : 136548
        },
        {
            "buffer" : 0,
            "byteLength" : 71688,
            "byteOffset" : 208236
        },
        {
            "buffer" : 0,
            "byteLength" : 47792,
            "byteOffset" : 279924
        },
        {
            "buffer" : 0,
            "byteLength" : 43632,
            "byteOffset" : 327716
        }
    ],
    "buffers" : [
        {
            "byteLength" : 371348,
            "uri" : "data:application/octet-stream;base64,"
        }
    ]
}
